<svg xmlns="http://www.w3.org/2000/svg" xmlns:xlink="http://www.w3.org/1999/xlink" width="878" height="1122" viewBox="0 0 878 1122"><defs><filter id="a" x="185.991" y="71.531" width="510.267" height="66" filterUnits="userSpaceOnUse"><feOffset dx="1" dy="1" input="SourceAlpha"/><feGaussianBlur stdDeviation="3" result="b"/><feFlood flood-opacity="0.161"/><feComposite operator="in" in2="b"/><feComposite in="SourceGraphic"/></filter><filter id="c" x="389.63" y="35.793" width="98.462" height="33.412" filterUnits="userSpaceOnUse"><feOffset dy="3" input="SourceAlpha"/><feGaussianBlur stdDeviation="3" result="d"/><feFlood flood-opacity="0.161"/><feComposite operator="in" in2="d"/><feComposite in="SourceGraphic"/></filter><clipPath id="e"><rect width="647" height="916" fill="none"/></clipPath><linearGradient id="f" x1="0.5" x2="0.5" y2="1" gradientUnits="objectBoundingBox"><stop offset="0" stop-color="#d8d8d8"/><stop offset="0.105" stop-color="#d8d8d8" stop-opacity="0.973"/><stop offset="0.243" stop-color="#d8d8d8" stop-opacity="0.894"/><stop offset="0.4" stop-color="#d8d8d8" stop-opacity="0.769"/><stop offset="0.571" stop-color="#d9d9d9" stop-opacity="0.592"/><stop offset="0.754" stop-color="#d9d9d9" stop-opacity="0.365"/><stop offset="0.943" stop-color="#dadada" stop-opacity="0.09"/><stop offset="1" stop-color="#dbdbdb" stop-opacity="0"/></linearGradient><clipPath id="h"><rect width="878" height="1122"/></clipPath></defs><g id="g" clip-path="url(#h)"><rect width="878" height="1122" fill="#fff"/><rect width="878" height="10.172" transform="translate(0 152.383)" fill="#669e9b"/><rect width="878" height="152.384" transform="translate(0 0.001)" fill="#454857"/><g transform="matrix(1, 0, 0, 1, 0, 0)" filter="url(#a)"><path d="M222.421,33.539q0,8.461-4.816,12.961T203.695,51h-9.7V16.734h10.758q8.391,0,13.031,4.43T222.421,33.539Zm-7.547.188q0-11.039-9.75-11.039h-3.867V45h3.117Q214.874,45,214.874,33.727Zm13.3-15.7q0-3.492,3.891-3.492t3.891,3.492a3.4,3.4,0,0,1-.973,2.59,4.088,4.088,0,0,1-2.918.926Q228.176,21.539,228.176,18.023ZM235.629,51H228.48V24.8h7.148Zm29.825-26.2V28.43l-4.1,1.055a7.15,7.15,0,0,1,1.125,3.938A7.949,7.949,0,0,1,259.535,40q-2.941,2.355-8.168,2.355l-1.289-.07-1.055-.117a2.377,2.377,0,0,0-1.1,1.875q0,1.547,3.938,1.547h4.453q4.313,0,6.574,1.852a6.618,6.618,0,0,1,2.262,5.438A8.064,8.064,0,0,1,261.317,60q-3.832,2.531-11,2.531-5.484,0-8.379-1.91a6.065,6.065,0,0,1-2.895-5.355,5.606,5.606,0,0,1,1.477-3.961,8.384,8.384,0,0,1,4.336-2.273A4.784,4.784,0,0,1,242.93,47.5a3.773,3.773,0,0,1,.047-4.758,10.026,10.026,0,0,1,2.508-1.957,7.033,7.033,0,0,1-3.27-2.859,8.7,8.7,0,0,1-1.207-4.641,8.184,8.184,0,0,1,2.789-6.633q2.789-2.344,7.969-2.344a20.4,20.4,0,0,1,2.613.2q1.512.2,1.934.293ZM245.227,54.7a2.591,2.591,0,0,0,1.418,2.32,7.8,7.8,0,0,0,3.973.844,14.072,14.072,0,0,0,6.023-1.055q2.18-1.055,2.18-2.883a2.041,2.041,0,0,0-1.289-2.039,10.556,10.556,0,0,0-3.984-.562h-3.7a5.608,5.608,0,0,0-3.293.926A2.855,2.855,0,0,0,245.227,54.7Zm2.6-21.328a5.335,5.335,0,0,0,.973,3.375,3.533,3.533,0,0,0,2.965,1.242,3.46,3.46,0,0,0,2.953-1.242,5.478,5.478,0,0,0,.938-3.375q0-4.734-3.891-4.734Q247.828,28.641,247.828,33.375Zm21.153-15.352q0-3.492,3.891-3.492t3.891,3.492a3.4,3.4,0,0,1-.973,2.59,4.088,4.088,0,0,1-2.918.926Q268.981,21.539,268.981,18.023ZM276.434,51h-7.148V24.8h7.148Zm18.059-5.227a15.5,15.5,0,0,0,4.5-.82v5.32a16.045,16.045,0,0,1-6.562,1.2q-4.289,0-6.246-2.168t-1.957-6.5V30.164h-3.422V27.141l3.938-2.391,2.063-5.531h4.57V24.8h7.336v5.367h-7.336V42.8a2.791,2.791,0,0,0,.855,2.25A3.375,3.375,0,0,0,294.493,45.773ZM320.451,51l-1.383-3.562h-.187a10.558,10.558,0,0,1-3.715,3.152,12.005,12.005,0,0,1-4.98.879,8.054,8.054,0,0,1-5.941-2.156,8.281,8.281,0,0,1-2.168-6.141,6.914,6.914,0,0,1,2.918-6.152q2.918-1.98,8.8-2.191l4.547-.141V33.539q0-3.984-4.078-3.984a18.584,18.584,0,0,0-7.383,1.9l-2.367-4.828a21.3,21.3,0,0,1,10.031-2.367q5.273,0,8.086,2.3t2.813,6.984V51Zm-2.109-12.141-2.766.094a8.857,8.857,0,0,0-4.641,1.125,3.533,3.533,0,0,0-1.523,3.141q0,3.023,3.469,3.023a5.494,5.494,0,0,0,3.973-1.43,5.022,5.022,0,0,0,1.488-3.8ZM339.471,51h-7.148V14.531h7.148Zm19.571,0V16.734h7.266V51Zm38.309,0H390.2V35.7a7.709,7.709,0,0,0-.949-4.254,3.339,3.339,0,0,0-2.988-1.418,4.328,4.328,0,0,0-3.984,2.016q-1.242,2.016-1.242,6.633V51H373.89V24.8h5.461l.961,3.352h.4a7.263,7.263,0,0,1,3.047-2.824,9.893,9.893,0,0,1,4.57-1.02q5.883,0,7.969,3.844h.633a7.079,7.079,0,0,1,3.105-2.836,10.357,10.357,0,0,1,4.629-1.008q4.453,0,6.738,2.285t2.285,7.324V51h-7.172V35.7a7.709,7.709,0,0,0-.949-4.254,3.339,3.339,0,0,0-2.988-1.418,4.458,4.458,0,0,0-3.926,1.875q-1.3,1.875-1.3,5.953Zm39.833,0L435.8,47.438h-.187A10.558,10.558,0,0,1,431.9,50.59a12.005,12.005,0,0,1-4.98.879,8.054,8.054,0,0,1-5.941-2.156,8.281,8.281,0,0,1-2.168-6.141,6.914,6.914,0,0,1,2.918-6.152q2.918-1.98,8.8-2.191l4.547-.141V33.539q0-3.984-4.078-3.984a18.584,18.584,0,0,0-7.383,1.9l-2.367-4.828a21.3,21.3,0,0,1,10.031-2.367q5.273,0,8.086,2.3t2.813,6.984V51Zm-2.109-12.141-2.766.094a8.857,8.857,0,0,0-4.641,1.125,3.533,3.533,0,0,0-1.523,3.141q0,3.023,3.469,3.023a5.494,5.494,0,0,0,3.973-1.43,5.022,5.022,0,0,0,1.488-3.8ZM471.86,24.8V28.43l-4.1,1.055a7.15,7.15,0,0,1,1.125,3.938A7.949,7.949,0,0,1,465.942,40q-2.941,2.355-8.168,2.355l-1.289-.07-1.055-.117a2.377,2.377,0,0,0-1.1,1.875q0,1.547,3.938,1.547h4.453q4.313,0,6.574,1.852a6.618,6.618,0,0,1,2.262,5.438A8.064,8.064,0,0,1,467.723,60q-3.832,2.531-11,2.531-5.484,0-8.379-1.91a6.065,6.065,0,0,1-2.895-5.355,5.606,5.606,0,0,1,1.477-3.961,8.384,8.384,0,0,1,4.336-2.273,4.784,4.784,0,0,1-1.922-1.535,3.773,3.773,0,0,1,.047-4.758,10.026,10.026,0,0,1,2.508-1.957,7.033,7.033,0,0,1-3.27-2.859,8.7,8.7,0,0,1-1.207-4.641,8.184,8.184,0,0,1,2.789-6.633q2.789-2.344,7.969-2.344a20.4,20.4,0,0,1,2.613.2q1.512.2,1.934.293ZM451.633,54.7a2.591,2.591,0,0,0,1.418,2.32,7.8,7.8,0,0,0,3.973.844,14.072,14.072,0,0,0,6.023-1.055q2.18-1.055,2.18-2.883a2.041,2.041,0,0,0-1.289-2.039,10.556,10.556,0,0,0-3.984-.562h-3.7a5.608,5.608,0,0,0-3.293.926A2.855,2.855,0,0,0,451.633,54.7Zm2.6-21.328a5.335,5.335,0,0,0,.973,3.375,3.533,3.533,0,0,0,2.965,1.242,3.46,3.46,0,0,0,2.953-1.242,5.478,5.478,0,0,0,.938-3.375q0-4.734-3.891-4.734Q454.235,28.641,454.235,33.375Zm32.309-3.984a4.534,4.534,0,0,0-3.562,1.441,6.671,6.671,0,0,0-1.477,4.09h10.031a5.959,5.959,0,0,0-1.383-4.09A4.682,4.682,0,0,0,486.544,29.391Zm1.008,22.078q-6.328,0-9.891-3.492T474.1,38.086q0-6.586,3.293-10.184t9.105-3.6q5.555,0,8.648,3.164t3.094,8.742V39.68h-16.9a6.881,6.881,0,0,0,1.8,4.758,6.35,6.35,0,0,0,4.734,1.711,19.654,19.654,0,0,0,4.477-.492,22.4,22.4,0,0,0,4.406-1.57v5.531a16.785,16.785,0,0,1-4.008,1.395A25.269,25.269,0,0,1,487.552,51.469ZM516.123,51V16.734h7.266V45h13.9v6Zm25.77-32.977q0-3.492,3.891-3.492t3.891,3.492a3.4,3.4,0,0,1-.973,2.59,4.088,4.088,0,0,1-2.918.926Q541.893,21.539,541.893,18.023ZM549.346,51H542.2V24.8h7.148Zm17.661.469q-12.234,0-12.234-13.43,0-6.68,3.328-10.207T567.64,24.3a18.185,18.185,0,0,1,8.156,1.781l-2.109,5.531q-1.687-.68-3.141-1.113a10.119,10.119,0,0,0-2.906-.434q-5.578,0-5.578,7.922,0,7.688,5.578,7.688a12.718,12.718,0,0,0,3.82-.551,13.794,13.794,0,0,0,3.516-1.723v6.117a11.521,11.521,0,0,1-3.5,1.523A19.7,19.7,0,0,1,567.007,51.469Zm24.411-22.078a4.534,4.534,0,0,0-3.562,1.441,6.671,6.671,0,0,0-1.477,4.09H596.41a5.959,5.959,0,0,0-1.383-4.09A4.682,4.682,0,0,0,591.417,29.391Zm1.008,22.078q-6.328,0-9.891-3.492t-3.562-9.891q0-6.586,3.293-10.184t9.105-3.6q5.555,0,8.648,3.164t3.094,8.742V39.68h-16.9a6.881,6.881,0,0,0,1.8,4.758,6.35,6.35,0,0,0,4.734,1.711,19.654,19.654,0,0,0,4.477-.492,22.4,22.4,0,0,0,4.406-1.57v5.531a16.785,16.785,0,0,1-4.008,1.395A25.269,25.269,0,0,1,592.425,51.469ZM632.633,51h-7.148V35.7a7.351,7.351,0,0,0-1.008-4.254,3.667,3.667,0,0,0-3.211-1.418,4.827,4.827,0,0,0-4.336,2q-1.336,2-1.336,6.645V51h-7.148V24.8h5.461l.961,3.352h.4a7.554,7.554,0,0,1,3.293-2.871,11.213,11.213,0,0,1,4.77-.973q4.57,0,6.938,2.473t2.367,7.137Zm17.52.469q-12.234,0-12.234-13.43,0-6.68,3.328-10.207t9.539-3.527a18.185,18.185,0,0,1,8.156,1.781l-2.109,5.531q-1.687-.68-3.141-1.113a10.119,10.119,0,0,0-2.906-.434q-5.578,0-5.578,7.922,0,7.688,5.578,7.688a12.718,12.718,0,0,0,3.82-.551,13.794,13.794,0,0,0,3.516-1.723v6.117a11.521,11.521,0,0,1-3.5,1.523A19.7,19.7,0,0,1,650.153,51.469Zm24.411-22.078A4.534,4.534,0,0,0,671,30.832a6.671,6.671,0,0,0-1.477,4.09h10.031a5.959,5.959,0,0,0-1.383-4.09A4.682,4.682,0,0,0,674.563,29.391Zm1.008,22.078q-6.328,0-9.891-3.492t-3.562-9.891q0-6.586,3.293-10.184t9.105-3.6q5.555,0,8.648,3.164t3.094,8.742V39.68h-16.9a6.881,6.881,0,0,0,1.8,4.758,6.35,6.35,0,0,0,4.734,1.711,19.654,19.654,0,0,0,4.477-.492,22.4,22.4,0,0,0,4.406-1.57v5.531a16.785,16.785,0,0,1-4.008,1.395A25.269,25.269,0,0,1,675.571,51.469Z" transform="translate(0 65)" fill="#fff"/></g><g transform="matrix(1, 0, 0, 1, 0, 0)" filter="url(#c)"><path d="M408.4,17.837a3.875,3.875,0,0,1-1.461,3.2,6.347,6.347,0,0,1-4.066,1.169,9.548,9.548,0,0,1-4.245-.9V18.35a17.494,17.494,0,0,0,2.569.954,7.6,7.6,0,0,0,1.923.277,2.734,2.734,0,0,0,1.6-.4,1.368,1.368,0,0,0,.559-1.189,1.313,1.313,0,0,0-.246-.784,2.754,2.754,0,0,0-.723-.661,18.592,18.592,0,0,0-1.943-1.015,9.21,9.21,0,0,1-2.061-1.241,4.658,4.658,0,0,1-1.1-1.384,3.95,3.95,0,0,1-.41-1.846,3.874,3.874,0,0,1,1.348-3.127,5.6,5.6,0,0,1,3.727-1.138,8.8,8.8,0,0,1,2.23.277,15.33,15.33,0,0,1,2.22.779l-1.025,2.471a15,15,0,0,0-1.984-.687,6.386,6.386,0,0,0-1.543-.195,2.043,2.043,0,0,0-1.384.42,1.387,1.387,0,0,0-.482,1.1,1.358,1.358,0,0,0,.195.733,2.142,2.142,0,0,0,.62.6,19.181,19.181,0,0,0,2.015,1.051,8.017,8.017,0,0,1,2.881,2.015A3.932,3.932,0,0,1,408.4,17.837ZM420.3,22l-1.087-3.568h-5.465L412.658,22h-3.425l5.291-15.053h3.886L423.722,22Zm-1.846-6.234q-1.507-4.85-1.7-5.486t-.272-1q-.338,1.313-1.938,6.491ZM431.956,22l-3.609-11.761h-.092q.195,3.589.195,4.789V22h-2.84V7.009h4.327l3.548,11.464h.062l3.763-11.464h4.327V22h-2.963V14.9q0-.5.015-1.159t.138-3.486h-.092L434.868,22Zm16.632-7.937h1.046a3.483,3.483,0,0,0,2.194-.579,2.028,2.028,0,0,0,.728-1.687,2.079,2.079,0,0,0-.61-1.651,2.859,2.859,0,0,0-1.912-.533h-1.446Zm7.178-2.379a4.582,4.582,0,0,1-1.512,3.7,6.469,6.469,0,0,1-4.3,1.282h-1.364V22h-3.179V7.009H450.2a6.369,6.369,0,0,1,4.148,1.174A4.281,4.281,0,0,1,455.765,11.685ZM458.6,22V7.009h3.179V19.375h6.081V22Zm20.5,0h-8.634V7.009h8.634v2.6h-5.455V12.9h5.076v2.6h-5.076v3.866h5.455Z" transform="translate(0 35)" fill="#fff"/></g><g transform="translate(116 135)"><g clip-path="url(#e)"><path d="M121.691.4H0V-.4H121.691Z" transform="translate(262.801 84.311)"/><path d="M75.728.4H0V-.4H75.728Z" transform="translate(97.094 789.261)"/><text transform="translate(262.801 79.993)" font-size="13" font-family="TimesNewRomanPS-BoldMT, Times New Roman" font-weight="700"><tspan x="0" y="0">Digital Image Licence</tspan></text><text transform="translate(61.194 119.157)" font-size="13" font-family="TimesNewRomanPS-BoldMT, Times New Roman" font-weight="700"><tspan x="0" y="0">Read these terms and conditions carefully before using or purchasing the Digital Image from</tspan></text><text transform="translate(61.194 138.739)" font-size="13" font-family="TimesNewRomanPS-BoldMT, Times New Roman" font-weight="700"><tspan x="0" y="0">the Seller. By using or purchasing the Digital Image from the Seller, you agree to be bound by</tspan></text><text transform="translate(61.194 158.321)" font-size="13" font-family="TimesNewRomanPS-BoldMT, Times New Roman" font-weight="700"><tspan x="0" y="0">the terms and conditions of this Agreement. If you do not accept the terms and conditions in</tspan></text><text transform="translate(61.194 177.903)" font-size="13" font-family="TimesNewRomanPS-BoldMT, Times New Roman" font-weight="700"><tspan x="0" y="0">this Agreement, do not use or purchase the Digital Image from the Seller.</tspan></text><text transform="translate(61.194 217.067)" font-size="13" font-family="TimesNewRomanPS-BoldMT, Times New Roman" font-weight="700"><tspan x="0" y="0">THIS DIGITAL IMAGE LICENCE (the &apos;Agreement&apos;) dated this _____ day of</tspan></text><text transform="translate(61.194 236.648)" font-size="13" font-family="TimesNewRomanPS-BoldMT, Times New Roman" font-weight="700"><tspan x="0" y="0">_____________, 20____</tspan></text><text transform="translate(61.194 275.812)" font-size="13" font-family="TimesNewRomanPS-BoldMT, Times New Roman" font-weight="700"><tspan x="0" y="0">BETWEEN:</tspan></text><text transform="translate(251.302 334.558)" font-size="13" font-family="TimesNewRomanPSMT, Times New Roman"><tspan x="0" y="0">____________________ of</tspan></text><text transform="translate(62.553 354.14)" font-size="13" font-family="TimesNewRomanPSMT, Times New Roman"><tspan x="0" y="0">________________________________________________________________________________</tspan></text><text transform="translate(292.152 393.304)" font-size="13" font-family="TimesNewRomanPSMT, Times New Roman"><tspan x="0" y="0">(the &apos;Seller&apos;)</tspan></text><text transform="translate(465.409 432.468)" font-size="13" font-family="TimesNewRomanPSMT, Times New Roman"><tspan x="0" y="0">OF THE FIRST PART</tspan></text><text transform="translate(301.899 470.632)" font-size="12" font-family="TimesNewRomanPSMT, Times New Roman"><tspan x="0" y="0">- AND -</tspan></text><text transform="translate(251.302 530.378)" font-size="13" font-family="TimesNewRomanPSMT, Times New Roman"><tspan x="0" y="0">____________________ of</tspan></text><text transform="translate(62.553 549.96)" font-size="13" font-family="TimesNewRomanPSMT, Times New Roman"><tspan x="0" y="0">________________________________________________________________________________</tspan></text><text transform="translate(291.412 589.124)" font-size="13" font-family="TimesNewRomanPSMT, Times New Roman"><tspan x="0" y="0">(the &apos;Buyer&apos;)</tspan></text><text transform="translate(448.742 627.287)" font-size="12" font-family="TimesNewRomanPSMT, Times New Roman"><tspan x="0" y="0">OF THE SECOND PART</tspan></text><text transform="translate(186.039 667.451)" font-size="13" font-family="TimesNewRomanPSMT, Times New Roman"><tspan x="0" y="0">(individually the &apos;Party&apos; and collectively the &apos;Parties&apos;)</tspan></text><text transform="translate(61.194 706.615)" font-size="13" font-family="TimesNewRomanPS-BoldMT, Times New Roman" font-weight="700"><tspan x="0" y="0">IN CONSIDERATION OF</tspan></text><text transform="translate(215.238 706.615)" font-size="13" font-family="TimesNewRomanPSMT, Times New Roman"><tspan x="0" y="0">the Seller providing the Digital Image to the Buyer and the Buyer</tspan></text><text transform="translate(61.194 726.197)" font-size="13" font-family="TimesNewRomanPSMT, Times New Roman"><tspan x="0" y="0">paying the Seller the Purchase Price, and other valuable consideration, the receipt and sufficiency of</tspan></text><text transform="translate(61.194 745.779)" font-size="13" font-family="TimesNewRomanPSMT, Times New Roman"><tspan x="0" y="0">which consideration is hereby acknowledged, the Parties agree as follows:</tspan></text><text transform="translate(97.094 784.943)" font-size="13" font-family="TimesNewRomanPS-BoldMT, Times New Roman" font-weight="700"><tspan x="0" y="0">Digital Image</tspan></text><text transform="translate(61.194 803.525)" font-size="12" font-family="TimesNewRomanPSMT, Times New Roman"><tspan x="0" y="0">1.</tspan></text><text transform="translate(97.094 804.525)" font-size="13" font-family="TimesNewRomanPSMT, Times New Roman"><tspan x="0" y="0">The Seller owns and is providing to the Buyer the digital image or digital images described</tspan></text><text transform="translate(97.094 824.107)" font-size="13" font-family="TimesNewRomanPSMT, Times New Roman"><tspan x="0" y="0">below (the &apos;Digital Image&apos;):</tspan></text></g></g><rect width="878" height="10" transform="translate(0 1024.555)" fill="#669e9b"/><rect width="878" height="87.445" transform="translate(0 1034.555)" fill="#454857"/><path d="M4.409,0H1.979V-14.991h8.459v2.071H4.409v4.686h5.65v2.082H4.409ZM18.442-11.546a5.8,5.8,0,0,1,1.2.1L19.406-9.2a4.554,4.554,0,0,0-1.066-.123A3.086,3.086,0,0,0,16-8.377a3.41,3.41,0,0,0-.9,2.451V0h-2.41V-11.341h1.887l.318,2h.123a4.493,4.493,0,0,1,1.471-1.61A3.5,3.5,0,0,1,18.442-11.546ZM26.486.205a5.486,5.486,0,0,1-4.137-1.543,5.858,5.858,0,0,1-1.492-4.25,6.427,6.427,0,0,1,1.384-4.368,4.781,4.781,0,0,1,3.8-1.589,4.673,4.673,0,0,1,3.548,1.364,5.211,5.211,0,0,1,1.3,3.753v1.3H23.338a3.725,3.725,0,0,0,.892,2.538A3.107,3.107,0,0,0,26.6-1.7a8.744,8.744,0,0,0,1.871-.19,9.809,9.809,0,0,0,1.861-.631V-.564a7.4,7.4,0,0,1-1.784.595A10.94,10.94,0,0,1,26.486.205Zm-.441-9.926a2.421,2.421,0,0,0-1.841.728,3.47,3.47,0,0,0-.825,2.123h5.147A3.139,3.139,0,0,0,27.85-9,2.315,2.315,0,0,0,26.045-9.721ZM38.376.205a5.486,5.486,0,0,1-4.137-1.543,5.858,5.858,0,0,1-1.492-4.25,6.427,6.427,0,0,1,1.384-4.368,4.781,4.781,0,0,1,3.8-1.589,4.673,4.673,0,0,1,3.548,1.364,5.211,5.211,0,0,1,1.3,3.753v1.3H35.228a3.725,3.725,0,0,0,.892,2.538,3.107,3.107,0,0,0,2.369.887,8.744,8.744,0,0,0,1.871-.19,9.809,9.809,0,0,0,1.861-.631V-.564a7.4,7.4,0,0,1-1.784.595A10.94,10.94,0,0,1,38.376.205Zm-.441-9.926a2.421,2.421,0,0,0-1.841.728,3.47,3.47,0,0,0-.825,2.123h5.147A3.139,3.139,0,0,0,39.74-9,2.315,2.315,0,0,0,37.935-9.721ZM50.814,0V-14.991h2.451V-2.1h6.347V0ZM66.682.205a5.486,5.486,0,0,1-4.137-1.543,5.858,5.858,0,0,1-1.492-4.25,6.427,6.427,0,0,1,1.384-4.368,4.781,4.781,0,0,1,3.8-1.589,4.673,4.673,0,0,1,3.548,1.364,5.211,5.211,0,0,1,1.3,3.753v1.3H63.534a3.725,3.725,0,0,0,.892,2.538A3.107,3.107,0,0,0,66.8-1.7a8.744,8.744,0,0,0,1.871-.19,9.809,9.809,0,0,0,1.861-.631V-.564a7.4,7.4,0,0,1-1.784.595A10.94,10.94,0,0,1,66.682.205Zm-.441-9.926a2.421,2.421,0,0,0-1.841.728,3.47,3.47,0,0,0-.825,2.123h5.147A3.139,3.139,0,0,0,68.046-9,2.315,2.315,0,0,0,66.241-9.721ZM83.2-11.341v1.323l-1.938.359a3.128,3.128,0,0,1,.441.882,3.479,3.479,0,0,1,.174,1.107,3.393,3.393,0,0,1-1.21,2.758,5.063,5.063,0,0,1-3.333,1,5.4,5.4,0,0,1-.984-.082,1.357,1.357,0,0,0-.779,1.128.627.627,0,0,0,.364.584,3.148,3.148,0,0,0,1.338.195h1.979a4.4,4.4,0,0,1,2.851.8,2.814,2.814,0,0,1,.974,2.307A3.355,3.355,0,0,1,81.484,4,8.368,8.368,0,0,1,76.89,5.045a6.34,6.34,0,0,1-3.538-.82,2.651,2.651,0,0,1-1.22-2.338A2.488,2.488,0,0,1,72.794.128a3.544,3.544,0,0,1,1.851-.99,1.811,1.811,0,0,1-.795-.661,1.67,1.67,0,0,1-.313-.959A1.65,1.65,0,0,1,73.9-3.558a4.141,4.141,0,0,1,1.066-.872,3.159,3.159,0,0,1-1.43-1.236,3.634,3.634,0,0,1-.549-2,3.594,3.594,0,0,1,1.164-2.861,4.893,4.893,0,0,1,3.317-1.015,8.074,8.074,0,0,1,1.01.067,6.358,6.358,0,0,1,.795.138Zm-8.911,13.1a1.325,1.325,0,0,0,.7,1.2,3.86,3.86,0,0,0,1.974.42,5.964,5.964,0,0,0,2.933-.564,1.691,1.691,0,0,0,.964-1.5A1.123,1.123,0,0,0,80.331.272a4.241,4.241,0,0,0-1.964-.313H76.542A2.565,2.565,0,0,0,74.9.446,1.6,1.6,0,0,0,74.286,1.764ZM75.322-7.67a2.282,2.282,0,0,0,.549,1.641,2.075,2.075,0,0,0,1.574.574q2.092,0,2.092-2.235A2.536,2.536,0,0,0,79.018-9.4a1.967,1.967,0,0,0-1.574-.6A2.028,2.028,0,0,0,75.86-9.4,2.5,2.5,0,0,0,75.322-7.67ZM92.184,0,91.7-1.579H91.62a4.646,4.646,0,0,1-1.651,1.41,5.221,5.221,0,0,1-2.133.374,3.61,3.61,0,0,1-2.61-.9,3.377,3.377,0,0,1-.938-2.553,3,3,0,0,1,1.3-2.646,7.509,7.509,0,0,1,3.968-.974l1.958-.062v-.6a2.293,2.293,0,0,0-.508-1.625A2.07,2.07,0,0,0,89.436-9.7a5.442,5.442,0,0,0-1.671.256,12.613,12.613,0,0,0-1.538.6l-.779-1.723a8.387,8.387,0,0,1,2.02-.733,9.3,9.3,0,0,1,2.071-.251A4.906,4.906,0,0,1,92.8-10.6a3.693,3.693,0,0,1,1.1,2.963V0ZM88.6-1.641A2.985,2.985,0,0,0,90.7-2.374,2.658,2.658,0,0,0,91.5-4.43v-.984l-1.456.062a4.982,4.982,0,0,0-2.476.569,1.729,1.729,0,0,0-.774,1.553,1.516,1.516,0,0,0,.451,1.174A1.938,1.938,0,0,0,88.6-1.641ZM99.47,0H97.06V-15.955h2.41ZM120.4-7.639a7.471,7.471,0,0,1-2.061,5.676A8.278,8.278,0,0,1,112.4,0h-4.194V-14.991h4.635a7.668,7.668,0,0,1,5.568,1.928A7.2,7.2,0,0,1,120.4-7.639Zm-2.584.082q0-5.383-5.035-5.383h-2.123V-2.061H112.4Q117.815-2.061,117.815-7.557Zm15.4,1.866a6.19,6.19,0,0,1-1.425,4.337A5.107,5.107,0,0,1,127.817.205a5.437,5.437,0,0,1-2.81-.718,4.739,4.739,0,0,1-1.876-2.061,7.02,7.02,0,0,1-.656-3.117A6.148,6.148,0,0,1,123.89-10a5.131,5.131,0,0,1,3.989-1.548,5,5,0,0,1,3.9,1.584A6.12,6.12,0,0,1,133.211-5.691Zm-8.254,0q0,3.927,2.9,3.927,2.871,0,2.871-3.927,0-3.886-2.892-3.886a2.466,2.466,0,0,0-2.2,1A5.114,5.114,0,0,0,124.957-5.691Zm15.386,5.9a4.965,4.965,0,0,1-3.912-1.5,6.276,6.276,0,0,1-1.338-4.312,6.312,6.312,0,0,1,1.4-4.4,5.192,5.192,0,0,1,4.045-1.538,7.581,7.581,0,0,1,3.23.667l-.728,1.938a7.3,7.3,0,0,0-2.522-.595q-2.943,0-2.943,3.907a4.679,4.679,0,0,0,.733,2.866,2.538,2.538,0,0,0,2.148.959,6.163,6.163,0,0,0,3.045-.8V-.5a4.759,4.759,0,0,1-1.379.543A8.276,8.276,0,0,1,140.343.205ZM153.955,0l-.338-1.487h-.123a3.419,3.419,0,0,1-1.43,1.241,4.783,4.783,0,0,1-2.117.451A4.157,4.157,0,0,1,146.87-.82a4.251,4.251,0,0,1-1.015-3.107v-7.414h2.43v6.993a3.034,3.034,0,0,0,.533,1.953,2.036,2.036,0,0,0,1.671.651,2.661,2.661,0,0,0,2.23-.907,5,5,0,0,0,.713-3.04v-5.65h2.42V0Zm14.679,0h-2.42V-6.993a3.171,3.171,0,0,0-.492-1.943,1.816,1.816,0,0,0-1.538-.641,2.346,2.346,0,0,0-2.046.907,5.324,5.324,0,0,0-.651,3.02V0h-2.41V-11.341h1.887l.338,1.487h.123a3.142,3.142,0,0,1,1.369-1.251,4.414,4.414,0,0,1,1.974-.441q2.615,0,3.466,1.784h.164a3.457,3.457,0,0,1,1.415-1.312,4.491,4.491,0,0,1,2.092-.472,3.809,3.809,0,0,1,2.958,1.025,4.541,4.541,0,0,1,.928,3.127V0h-2.41V-6.993a3.146,3.146,0,0,0-.5-1.943,1.831,1.831,0,0,0-1.543-.641,2.392,2.392,0,0,0-2.056.877,4.519,4.519,0,0,0-.651,2.692ZM183.9.205a5.486,5.486,0,0,1-4.137-1.543,5.858,5.858,0,0,1-1.492-4.25,6.427,6.427,0,0,1,1.384-4.368,4.781,4.781,0,0,1,3.8-1.589A4.673,4.673,0,0,1,187-10.182a5.211,5.211,0,0,1,1.3,3.753v1.3h-7.557a3.725,3.725,0,0,0,.892,2.538,3.107,3.107,0,0,0,2.369.887,8.744,8.744,0,0,0,1.871-.19,9.809,9.809,0,0,0,1.861-.631V-.564a7.4,7.4,0,0,1-1.784.595A10.94,10.94,0,0,1,183.9.205Zm-.441-9.926a2.421,2.421,0,0,0-1.841.728,3.47,3.47,0,0,0-.825,2.123h5.147A3.139,3.139,0,0,0,185.261-9,2.315,2.315,0,0,0,183.456-9.721ZM200.811,0h-2.42V-6.973a3.052,3.052,0,0,0-.528-1.958,2.041,2.041,0,0,0-1.677-.646,2.666,2.666,0,0,0-2.235.9,4.982,4.982,0,0,0-.708,3.025V0h-2.41V-11.341h1.887l.338,1.487h.123a3.355,3.355,0,0,1,1.456-1.251,4.88,4.88,0,0,1,2.092-.441q4.081,0,4.081,4.153Zm7.368-1.743a5.86,5.86,0,0,0,1.764-.277V-.205a4.864,4.864,0,0,1-1.031.292A7.1,7.1,0,0,1,207.6.205q-3.425,0-3.425-3.609V-9.516h-1.548v-1.066l1.661-.882.82-2.4H206.6v2.522h3.23v1.825H206.6v6.07a1.7,1.7,0,0,0,.436,1.287A1.589,1.589,0,0,0,208.178-1.743ZM219.617-3.23a2.967,2.967,0,0,1-1.21,2.548,5.794,5.794,0,0,1-3.466.887,8.187,8.187,0,0,1-3.64-.687V-2.563a8.937,8.937,0,0,0,3.722.923q2.225,0,2.225-1.343A1.064,1.064,0,0,0,217-3.7a2.913,2.913,0,0,0-.81-.595,13.94,13.94,0,0,0-1.569-.7,7.257,7.257,0,0,1-2.651-1.518,2.808,2.808,0,0,1-.692-1.969,2.586,2.586,0,0,1,1.174-2.261,5.571,5.571,0,0,1,3.194-.8,9.047,9.047,0,0,1,3.784.81l-.779,1.815a8.415,8.415,0,0,0-3.086-.759q-1.907,0-1.907,1.087a1.094,1.094,0,0,0,.5.9,10.937,10.937,0,0,0,2.169,1.015,9.914,9.914,0,0,1,2.041.995,2.972,2.972,0,0,1,.943,1.041A3.012,3.012,0,0,1,219.617-3.23Zm4.9,1.025a34.462,34.462,0,0,1-1.8,4.912h-1.774a50.466,50.466,0,0,0,1.056-5.147h2.369ZM4.409,28H1.979V13.009h8.459V15.08H4.409v4.686h5.65v2.082H4.409Zm18.339-5.691a6.19,6.19,0,0,1-1.425,4.337,5.107,5.107,0,0,1-3.968,1.559,5.437,5.437,0,0,1-2.81-.718,4.739,4.739,0,0,1-1.876-2.061,7.02,7.02,0,0,1-.656-3.117A6.148,6.148,0,0,1,13.428,18a5.131,5.131,0,0,1,3.989-1.548,5,5,0,0,1,3.9,1.584A6.12,6.12,0,0,1,22.748,22.309Zm-8.254,0q0,3.927,2.9,3.927,2.871,0,2.871-3.927,0-3.886-2.892-3.886a2.466,2.466,0,0,0-2.2,1A5.114,5.114,0,0,0,14.494,22.309Zm16.565-5.855a5.8,5.8,0,0,1,1.2.1L32.023,18.8a4.554,4.554,0,0,0-1.066-.123,3.086,3.086,0,0,0-2.343.943,3.41,3.41,0,0,0-.9,2.451V28h-2.41V16.659h1.887l.318,2h.123a4.493,4.493,0,0,1,1.471-1.61A3.5,3.5,0,0,1,31.059,16.454ZM43.708,28h-2.42V21.007a3.171,3.171,0,0,0-.492-1.943,1.816,1.816,0,0,0-1.538-.641,2.346,2.346,0,0,0-2.046.907,5.324,5.324,0,0,0-.651,3.02V28h-2.41V16.659h1.887l.338,1.487H36.5A3.142,3.142,0,0,1,37.868,16.9a4.414,4.414,0,0,1,1.974-.441q2.615,0,3.466,1.784h.164a3.457,3.457,0,0,1,1.415-1.312,4.491,4.491,0,0,1,2.092-.472,3.809,3.809,0,0,1,2.958,1.025,4.541,4.541,0,0,1,.928,3.127V28h-2.41V21.007a3.147,3.147,0,0,0-.5-1.943,1.831,1.831,0,0,0-1.543-.641,2.392,2.392,0,0,0-2.056.877,4.519,4.519,0,0,0-.651,2.692Zm17.929-3.23a2.967,2.967,0,0,1-1.21,2.548,5.794,5.794,0,0,1-3.466.887,8.187,8.187,0,0,1-3.64-.687V25.437a8.937,8.937,0,0,0,3.722.923q2.225,0,2.225-1.343a1.064,1.064,0,0,0-.246-.718,2.913,2.913,0,0,0-.81-.595,13.94,13.94,0,0,0-1.569-.7,7.257,7.257,0,0,1-2.651-1.518A2.808,2.808,0,0,1,53.3,19.52a2.586,2.586,0,0,1,1.174-2.261,5.571,5.571,0,0,1,3.194-.8,9.047,9.047,0,0,1,3.784.81l-.779,1.815a8.415,8.415,0,0,0-3.086-.759q-1.907,0-1.907,1.087a1.094,1.094,0,0,0,.5.9,10.937,10.937,0,0,0,2.169,1.015,9.913,9.913,0,0,1,2.041.995,2.972,2.972,0,0,1,.943,1.041A3.012,3.012,0,0,1,61.637,24.77Zm4.9,1.025a34.462,34.462,0,0,1-1.8,4.912H62.955a50.464,50.464,0,0,0,1.056-5.147H66.38ZM81.771,28l-.482-1.579h-.082a4.646,4.646,0,0,1-1.651,1.41,5.221,5.221,0,0,1-2.133.374,3.61,3.61,0,0,1-2.61-.9,3.377,3.377,0,0,1-.938-2.553,3,3,0,0,1,1.3-2.646,7.509,7.509,0,0,1,3.968-.974l1.958-.062v-.6a2.293,2.293,0,0,0-.508-1.625,2.07,2.07,0,0,0-1.574-.538,5.442,5.442,0,0,0-1.671.256,12.613,12.613,0,0,0-1.538.6l-.779-1.723a8.387,8.387,0,0,1,2.02-.733,9.3,9.3,0,0,1,2.071-.251,4.906,4.906,0,0,1,3.266.943,3.693,3.693,0,0,1,1.1,2.963V28Zm-3.589-1.641a2.985,2.985,0,0,0,2.107-.733,2.658,2.658,0,0,0,.795-2.056v-.984l-1.456.062a4.982,4.982,0,0,0-2.476.569,1.729,1.729,0,0,0-.774,1.553,1.516,1.516,0,0,0,.451,1.174A1.938,1.938,0,0,0,78.182,26.359ZM96.624,28H94.2V21.027a3.052,3.052,0,0,0-.528-1.958A2.041,2.041,0,0,0,92,18.423a2.666,2.666,0,0,0-2.235.9,4.982,4.982,0,0,0-.708,3.025V28h-2.41V16.659h1.887l.338,1.487H89A3.355,3.355,0,0,1,90.451,16.9a4.88,4.88,0,0,1,2.092-.441q4.081,0,4.081,4.153Zm6.968.205a3.95,3.95,0,0,1-3.312-1.538A6.913,6.913,0,0,1,99.09,22.35a6.936,6.936,0,0,1,1.2-4.343,3.988,3.988,0,0,1,3.338-1.553,3.91,3.91,0,0,1,3.4,1.651h.123a14.445,14.445,0,0,1-.174-1.928V12.045h2.42V28h-1.887l-.42-1.487h-.113A3.852,3.852,0,0,1,103.592,28.205Zm.646-1.948a2.623,2.623,0,0,0,2.164-.836,4.4,4.4,0,0,0,.7-2.712v-.338a5.083,5.083,0,0,0-.7-3.045,2.587,2.587,0,0,0-2.184-.9,2.216,2.216,0,0,0-1.958,1.031,5.281,5.281,0,0,0-.687,2.938,5.149,5.149,0,0,0,.667,2.876A2.25,2.25,0,0,0,104.238,26.257ZM124.521,14.9a4.04,4.04,0,0,0-3.322,1.5,6.4,6.4,0,0,0-1.21,4.132,6.442,6.442,0,0,0,1.164,4.173,4.111,4.111,0,0,0,3.368,1.415,8.851,8.851,0,0,0,1.846-.19q.892-.19,1.856-.487v2.1a11.252,11.252,0,0,1-4,.667,6.392,6.392,0,0,1-5.055-1.994A8.343,8.343,0,0,1,117.4,20.5a9.221,9.221,0,0,1,.856-4.091,6.111,6.111,0,0,1,2.476-2.687,7.49,7.49,0,0,1,3.8-.933,9.441,9.441,0,0,1,4.245.964L127.9,15.8a13.166,13.166,0,0,0-1.6-.631A5.782,5.782,0,0,0,124.521,14.9Zm16.524,7.414a6.19,6.19,0,0,1-1.425,4.337,5.107,5.107,0,0,1-3.968,1.559,5.437,5.437,0,0,1-2.81-.718,4.739,4.739,0,0,1-1.876-2.061,7.02,7.02,0,0,1-.656-3.117A6.148,6.148,0,0,1,131.724,18a5.131,5.131,0,0,1,3.989-1.548,5,5,0,0,1,3.9,1.584A6.12,6.12,0,0,1,141.045,22.309Zm-8.254,0q0,3.927,2.9,3.927,2.871,0,2.871-3.927,0-3.886-2.892-3.886a2.466,2.466,0,0,0-2.2,1A5.114,5.114,0,0,0,132.791,22.309ZM153.581,28h-2.42V21.027a3.052,3.052,0,0,0-.528-1.958,2.041,2.041,0,0,0-1.677-.646,2.666,2.666,0,0,0-2.235.9,4.982,4.982,0,0,0-.708,3.025V28H143.6V16.659h1.887l.338,1.487h.123a3.355,3.355,0,0,1,1.456-1.251,4.88,4.88,0,0,1,2.092-.441q4.081,0,4.081,4.153Zm7.368-1.743a5.86,5.86,0,0,0,1.764-.277v1.815a4.864,4.864,0,0,1-1.031.292,7.1,7.1,0,0,1-1.307.118q-3.425,0-3.425-3.609V18.484H155.4V17.418l1.661-.882.82-2.4h1.487v2.522h3.23v1.825h-3.23v6.07a1.7,1.7,0,0,0,.436,1.287A1.589,1.589,0,0,0,160.948,26.257Zm9.572-9.8a5.8,5.8,0,0,1,1.2.1l-.236,2.246a4.554,4.554,0,0,0-1.066-.123,3.086,3.086,0,0,0-2.343.943,3.41,3.41,0,0,0-.9,2.451V28h-2.41V16.659h1.887l.318,2h.123a4.493,4.493,0,0,1,1.471-1.61A3.5,3.5,0,0,1,170.52,16.454ZM180.708,28l-.482-1.579h-.082a4.646,4.646,0,0,1-1.651,1.41,5.221,5.221,0,0,1-2.133.374,3.61,3.61,0,0,1-2.61-.9,3.377,3.377,0,0,1-.938-2.553,3,3,0,0,1,1.3-2.646,7.509,7.509,0,0,1,3.968-.974l1.958-.062v-.6a2.293,2.293,0,0,0-.508-1.625,2.07,2.07,0,0,0-1.574-.538,5.442,5.442,0,0,0-1.671.256,12.613,12.613,0,0,0-1.538.6l-.779-1.723a8.387,8.387,0,0,1,2.02-.733,9.3,9.3,0,0,1,2.071-.251,4.906,4.906,0,0,1,3.266.943,3.693,3.693,0,0,1,1.1,2.963V28Zm-3.589-1.641a2.985,2.985,0,0,0,2.107-.733,2.658,2.658,0,0,0,.795-2.056v-.984l-1.456.062a4.982,4.982,0,0,0-2.476.569,1.729,1.729,0,0,0-.774,1.553,1.516,1.516,0,0,0,.451,1.174A1.938,1.938,0,0,0,177.119,26.359Zm13.038,1.846a4.965,4.965,0,0,1-3.912-1.5,6.276,6.276,0,0,1-1.338-4.312,6.312,6.312,0,0,1,1.4-4.4,5.192,5.192,0,0,1,4.045-1.538,7.581,7.581,0,0,1,3.23.667l-.728,1.938a7.3,7.3,0,0,0-2.522-.595q-2.943,0-2.943,3.907a4.679,4.679,0,0,0,.733,2.866,2.538,2.538,0,0,0,2.148.959,6.163,6.163,0,0,0,3.045-.8v2.1a4.759,4.759,0,0,1-1.379.543A8.276,8.276,0,0,1,190.157,28.205ZM200,26.257a5.86,5.86,0,0,0,1.764-.277v1.815a4.864,4.864,0,0,1-1.031.292,7.1,7.1,0,0,1-1.307.118Q196,28.205,196,24.6V18.484h-1.548V17.418l1.661-.882.82-2.4h1.487v2.522h3.23v1.825h-3.23v6.07a1.7,1.7,0,0,0,.436,1.287A1.589,1.589,0,0,0,200,26.257Zm11.438-1.487a2.967,2.967,0,0,1-1.21,2.548,5.794,5.794,0,0,1-3.466.887,8.187,8.187,0,0,1-3.64-.687V25.437a8.937,8.937,0,0,0,3.722.923q2.225,0,2.225-1.343a1.064,1.064,0,0,0-.246-.718,2.913,2.913,0,0,0-.81-.595,13.94,13.94,0,0,0-1.569-.7,7.257,7.257,0,0,1-2.651-1.518,2.808,2.808,0,0,1-.692-1.969,2.586,2.586,0,0,1,1.174-2.261,5.571,5.571,0,0,1,3.194-.8,9.047,9.047,0,0,1,3.784.81l-.779,1.815a8.415,8.415,0,0,0-3.086-.759q-1.907,0-1.907,1.087a1.094,1.094,0,0,0,.5.9,10.937,10.937,0,0,0,2.169,1.015,9.913,9.913,0,0,1,2.041.995,2.972,2.972,0,0,1,.943,1.041A3.012,3.012,0,0,1,211.434,24.77Z" transform="translate(524 1070)" fill="#fff"/><g transform="translate(115.172 -206.873)"><g transform="translate(75.376 1268.873)"><path d="M230.192,1301.322H207.76v-32.449h5.173v28.17h17.259Z" transform="translate(-207.76 -1268.873)" fill="#fff"/><path d="M291.965,1309.744l-1.269,2.681a10.745,10.745,0,0,1-6.208,1.6c-4.42,0-8.042-2.54-8.042-7.2,0-5.549,4.421-8.558,13.873-8.558h1.6v-.612a26.252,26.252,0,0,0-.095-2.728c-.141-2.022-1.41-3.432-4.374-3.432-3.01,0-4.561,1.692-4.844,4.8h-5.173c.329-5.455,4.421-8.559,10.112-8.559,6.442,0,8.982,2.727,9.406,6.96.094,1.035.141,2.351.141,3.527v8.794a43.17,43.17,0,0,0,.47,6.349h-5.126Zm-.046-5.737v-2.3c-6.067-.471-10.017.893-10.017,4.7,0,2.634,1.739,3.856,4.467,3.856C289.613,1310.262,291.919,1308.052,291.919,1304.007Z" transform="translate(-251.615 -1280.917)" fill="#fff"/><path d="M372.69,1314.529h-5.926l-4.937-20.175-4.986,20.175h-5.972l-7.947-24.972h5.831l5.125,20.363,4.844-20.316h6.3l4.985,20.364,5.125-20.41h5.5Z" transform="translate(-294.057 -1282.079)" fill="#fff"/><path d="M486.9,1284.815c0,10.253-6.395,15.52-12.744,16.319a30.463,30.463,0,0,1-4.139.188h-9.5v-32.449h9.642a34.082,34.082,0,0,1,3.9.141C480.645,1269.766,486.9,1274.469,486.9,1284.815Zm-3.2,0c0-8.323-4.561-12.6-9.922-13.356a28.2,28.2,0,0,0-3.763-.141h-6.583v27.558h6.442a26.318,26.318,0,0,0,4-.187C479.234,1297.889,483.7,1293.234,483.7,1284.815Z" transform="translate(-369.14 -1268.873)" fill="#fff"/><path d="M564.355,1301.961H545.5c.329,7.337,4.045,9.923,8.088,9.923a7.448,7.448,0,0,0,7.478-6.208h3.056c-1.176,5.784-5.736,8.512-10.722,8.512-6.207,0-11.05-4.326-11.05-13.074,0-7.994,4.985-13.12,11.522-13.12,6.959,0,10.58,5.55,10.58,12.416A11.408,11.408,0,0,1,564.355,1301.961Zm-18.858-2.3h15.989c-.329-6.4-3.527-9.312-7.713-9.312C549.683,1290.346,545.92,1293.449,545.5,1299.658Z" transform="translate(-421.387 -1281.082)" fill="#fff"/><path d="M636.927,1300.786c0,9.029-5.549,13.4-11.852,13.4a9.436,9.436,0,0,1-6.395-2.21l-1.553-2.68v13.45h-2.916v-34.236h2.916v4.75l1.646-2.727a9.835,9.835,0,0,1,7.054-2.54C632.787,1287.994,636.927,1293.4,636.927,1300.786Zm-3.2.377c0-5.973-2.869-10.817-8.324-10.817-4.421,0-8.278,2.634-8.278,10.158v1.881c0,7.1,4.279,9.5,7.947,9.5C630.06,1311.885,633.729,1307.888,633.729,1301.162Z" transform="translate(-467.27 -1281.082)" fill="#fff"/><path d="M709.025,1301.115c0,7.29-4.186,13.074-12.087,13.074s-12.085-5.784-12.085-13.074c0-7.336,4.185-13.12,12.085-13.12S709.025,1293.779,709.025,1301.115Zm-3.2,0c0-6.771-3.715-10.769-8.888-10.769s-8.888,4-8.888,10.769,3.715,10.77,8.888,10.77S705.826,1307.888,705.826,1301.115Z" transform="translate(-512.374 -1281.082)" fill="#fff"/><path d="M764.725,1298.49c0,1.034,0,1.552.047,2.21.188,2.4,1.222,3.01,4.561,2.586v2.163a16.229,16.229,0,0,1-3.01.236c-2.774,0-4.231-1.224-4.467-3.951-.047-.846-.047-1.787-.047-3.2v-15.66h-3.2v-2.257h3.2v-5.5h2.916v5.5h4.75v2.257h-4.75Z" transform="translate(-559.467 -1272.86)" fill="#fff"/><g transform="translate(211.536 24.169)"><path d="M792.887,1339.87a4.084,4.084,0,0,1,.553-2.066,4.043,4.043,0,0,1,1.52-1.521,4.177,4.177,0,0,1,4.157-.005,4.134,4.134,0,0,1,2.084,3.592,4.157,4.157,0,0,1-8.314,0Zm.58,0a3.574,3.574,0,0,0,5.362,3.085,3.593,3.593,0,0,0,1.307-1.3,3.538,3.538,0,0,0,0-3.567,3.591,3.591,0,0,0-1.3-1.3,3.571,3.571,0,0,0-3.579,0,3.592,3.592,0,0,0-1.307,1.3A3.448,3.448,0,0,0,793.467,1339.87Zm5.263-1a1.332,1.332,0,0,1-.235.779,1.389,1.389,0,0,1-.661.5l1.316,2.176h-.929l-1.144-1.95h-.746v1.95h-.818v-4.908h1.442a2.079,2.079,0,0,1,1.346.358A1.342,1.342,0,0,1,798.73,1338.867Zm-2.4.832h.6a1.057,1.057,0,0,0,.71-.229.729.729,0,0,0,.268-.581.7.7,0,0,0-.238-.593,1.259,1.259,0,0,0-.752-.179h-.586Z" transform="translate(-792.887 -1335.727)" fill="#fff"/></g></g><g transform="translate(0.417 1272.02)"><path d="M66.377,1302.343l.026-.052L78.7,1277.579H49.768c-.068.005-.134.006-.2.017a2.528,2.528,0,0,0-.333.066h0c-.044.012-.088.031-.132.044-.084.026-.167.05-.252.083h0a4.337,4.337,0,0,0-1.117.675l-.012.009c-.109.09-.215.187-.317.287l-.036.035c-.063.064-.123.132-.182.2-.031.035-.066.068-.1.1l-.038.047c-.087.106-.17.215-.246.328l-.026.04c-.076.116-.147.233-.211.354l-.005.009c-.028.051-.056.1-.082.154l-.524,1.054-11.965,24.063H62.463a4.493,4.493,0,0,0,2.919-1.445A5.309,5.309,0,0,0,66.377,1302.343ZM35,1305.053l-.041.01.041-.01Zm26.486,0-.041.01.041-.01Zm1.515,0-.041.01.041-.01Z" transform="translate(-21.852 -1277.579)" fill="#c1c1c1"/><path d="M46.736,1284.592c0-.6.028-1.19.068-1.778l0,0-.027.042a4.122,4.122,0,0,0-.211.354l-.005.009c-.028.051-.056.1-.082.154l-.524,1.054-11.965,24.063H62.463a2.6,2.6,0,0,0,.4-.034A25.729,25.729,0,0,1,46.736,1284.592ZM35,1308.4l-.041.01.041-.01Zm26.486,0-.041.01.041-.01Z" transform="translate(-21.852 -1280.921)" fill="url(#f)"/><path d="M29.133,1290.712a4.493,4.493,0,0,0-2.918,1.445,5.309,5.309,0,0,0-1,1.363l-.026.052-.188.378c.274-.074,32-.1,32-.1a4.493,4.493,0,0,0,2.919-1.445,5.3,5.3,0,0,0,.995-1.362l.026-.052.188-.378C60.861,1290.688,29.133,1290.712,29.133,1290.712Zm28.414,3.043-.041.01.041-.011Z" transform="translate(-16.117 -1285.902)" fill="#fff"/><path d="M4.544,1309.516a4.5,4.5,0,0,0-2.919,1.445,5.3,5.3,0,0,0-.995,1.363l-.026.052-.188.378c.274-.073,32-.1,32-.1a4.494,4.494,0,0,0,2.919-1.445,5.3,5.3,0,0,0,.995-1.363l.026-.052.188-.378C36.272,1309.493,4.544,1309.516,4.544,1309.516Zm28.414,3.043-.041.01.041-.01Z" transform="translate(-0.417 -1297.908)" fill="#fff"/></g></g></g></svg>